# Blender v2.79 (sub 0) OBJ File: ''
# www.blender.org
mtllib kphx_aerodome.mtl
o aerodrome
v 0.025070 0.000000 -0.007396
v 0.024929 0.000000 -0.007381
v 0.024795 0.000000 -0.007363
v 0.023593 0.000000 -0.007347
v 0.023045 0.000000 -0.007558
v 0.021234 0.000000 -0.008243
v 0.021092 0.000000 -0.008302
v 0.020855 0.000000 -0.008476
v 0.020683 0.000000 -0.008744
v 0.020637 0.000000 -0.008935
v 0.020641 0.000000 -0.009599
v 0.020642 0.000000 -0.010321
v 0.020649 0.000000 -0.010884
v 0.020637 0.000000 -0.011242
v 0.019943 0.000000 -0.011245
v 0.019971 0.000000 -0.011422
v 0.019915 0.000000 -0.011532
v 0.019803 0.000000 -0.011532
v 0.018578 0.000000 -0.011525
v 0.017372 0.000000 -0.011518
v 0.012447 0.000000 -0.011491
v -0.028863 0.000000 -0.011391
v -0.028939 0.000000 -0.011378
v -0.028985 0.000000 -0.011325
v -0.028987 0.000000 -0.011297
v -0.029014 0.000000 0.002832
v -0.028034 0.000000 0.004587
v -0.024290 0.000000 0.005395
v -0.021286 0.000000 0.005867
v -0.020604 0.000000 0.005989
v -0.019715 0.000000 0.006204
v -0.018409 0.000000 0.006559
v -0.018094 0.000000 0.006684
v -0.017765 0.000000 0.006852
v -0.016674 0.000000 0.007499
v -0.013951 0.000000 0.009119
v -0.013488 0.000000 0.009284
v -0.013151 0.000000 0.009425
v -0.012924 0.000000 0.009558
v -0.012653 0.000000 0.009765
v -0.012260 0.000000 0.010163
v -0.011327 0.000000 0.011029
v -0.010989 0.000000 0.011212
v -0.010815 0.000000 0.011296
v -0.010602 0.000000 0.011378
v -0.010355 0.000000 0.011453
v -0.010100 0.000000 0.011507
v -0.009782 0.000000 0.011532
v -0.009462 0.000000 0.011532
v -0.009038 0.000000 0.011489
v -0.008679 0.000000 0.011410
v -0.008391 0.000000 0.011320
v -0.006575 0.000000 0.010393
v -0.004160 0.000000 0.009141
v -0.003796 0.000000 0.008953
v -0.000892 0.000000 0.007522
v 0.001533 0.000000 0.006323
v 0.002670 0.000000 0.005805
v 0.003489 0.000000 0.005493
v 0.003967 0.000000 0.005350
v 0.004395 0.000000 0.005318
v 0.006222 0.000000 0.005462
v 0.009728 0.000000 0.005517
v 0.013607 0.000000 0.004614
v 0.029014 0.000000 -0.001310
v 0.028912 0.000000 -0.001703
v 0.028212 0.000000 -0.003020
v 0.026565 0.000000 -0.003065
v 0.026228 0.000000 -0.003100
v 0.026232 0.000000 -0.004085
v 0.025951 0.000000 -0.004566
v 0.025951 0.000000 -0.005047
v 0.026134 0.000000 -0.005445
v 0.026492 0.000000 -0.005759
v 0.026741 0.000000 -0.005900
v 0.027138 0.000000 -0.006032
v 0.027310 0.000000 -0.006002
v 0.027597 0.000000 -0.005981
v 0.027755 0.000000 -0.006626
v 0.027567 0.000000 -0.007326
vt 0.357019 0.665045
vt 0.414938 0.424780
vt 0.357445 0.665194
vt 0.663132 0.613788
vt 0.649113 0.614700
vt 0.658195 0.597039
vt 0.656767 0.595397
vt 0.663015 0.597962
vt 0.664042 0.605535
vt 0.661409 0.598224
vt 0.660450 0.598574
vt 0.640805 0.614167
vt 0.637762 0.616679
vt 0.648317 0.614530
vt 0.647560 0.614321
vt 0.627702 0.624824
vt 0.626912 0.625522
vt 0.654693 0.591731
vt 0.653588 0.587066
vt 0.654747 0.564317
vt 0.654967 0.575808
vt 0.653491 0.581439
vt 0.586419 0.453867
vt 0.668097 0.540168
vt 0.665817 0.563306
vt 0.656621 0.563889
vt 0.668581 0.535602
vt 0.545244 0.444514
vt 0.564579 0.443744
vt 0.578642 0.663627
vt 0.535174 0.446230
vt 0.532815 0.445883
vt 0.625607 0.627591
vt 0.530169 0.444271
vt 0.525984 0.436510
vt 0.624458 0.633021
vt 0.624587 0.640882
vt 0.613256 0.663834
vt 0.624683 0.630767
vt 0.492419 0.393334
vt 0.508356 0.413628
vt 0.421003 0.417404
vt 0.521045 0.429959
vt 0.624716 0.649453
vt 0.624846 0.656137
vt 0.620918 0.660450
vt 0.606445 0.663793
vt 0.624836 0.660391
vt 0.621106 0.662559
vt 0.620807 0.663870
vt 0.620176 0.663875
vt 0.487745 0.386264
vt 0.437969 0.384354
vt 0.465997 0.361261
vt 0.475887 0.371576
vt 0.444763 0.374415
vt 0.462468 0.359400
vt 0.464423 0.360263
vt 0.458402 0.358952
vt 0.460152 0.358935
vt 0.455267 0.359861
vt 0.456666 0.359242
vt 0.452746 0.361640
vt 0.453917 0.360711
vt 0.449931 0.364655
vt 0.451786 0.362587
vt 0.442584 0.378906
vt 0.441082 0.381254
vt 0.356772 0.664411
vt 0.356766 0.664083
vt 0.362468 0.477405
vt 0.388610 0.447975
vt 0.367871 0.457326
vt 0.395468 0.436099
vt 0.399231 0.434691
vt 0.404146 0.432208
vt 0.439826 0.382752
vt 0.411367 0.428126
vt 0.413114 0.426699
vt 0.435420 0.386241
vn 0.0000 1.0000 0.0000
usemtl None
s off
f 23/1/1 34/2/1 22/3/1
f 80/4/1 1/5/1 75/6/1
f 1/5/1 74/7/1 75/6/1
f 78/8/1 79/9/1 77/10/1
f 76/11/1 77/10/1 79/9/1
f 76/11/1 79/9/1 80/4/1
f 80/4/1 75/6/1 76/11/1
f 4/12/1 5/13/1 74/7/1
f 2/14/1 74/7/1 1/5/1
f 2/14/1 3/15/1 74/7/1
f 3/15/1 4/12/1 74/7/1
f 74/7/1 5/13/1 6/16/1
f 74/7/1 6/16/1 7/17/1
f 73/18/1 74/7/1 7/17/1
f 72/19/1 73/18/1 7/17/1
f 69/20/1 70/21/1 71/22/1
f 71/22/1 72/19/1 7/17/1
f 71/22/1 7/17/1 69/20/1
f 69/20/1 7/17/1 64/23/1
f 66/24/1 67/25/1 68/26/1
f 64/23/1 65/27/1 69/20/1
f 62/28/1 63/29/1 21/30/1
f 61/31/1 62/28/1 21/30/1
f 65/27/1 66/24/1 68/26/1
f 65/27/1 68/26/1 69/20/1
f 60/32/1 61/31/1 21/30/1
f 63/29/1 64/23/1 21/30/1
f 64/23/1 7/17/1 8/33/1
f 59/34/1 60/32/1 21/30/1
f 64/23/1 8/33/1 21/30/1
f 58/35/1 59/34/1 21/30/1
f 10/36/1 11/37/1 19/38/1
f 8/33/1 9/39/1 21/30/1
f 55/40/1 56/41/1 35/42/1
f 57/43/1 58/35/1 21/30/1
f 12/44/1 13/45/1 15/46/1
f 9/39/1 10/36/1 20/47/1
f 56/41/1 57/43/1 34/2/1
f 13/45/1 14/48/1 15/46/1
f 15/46/1 16/49/1 17/50/1
f 17/50/1 18/51/1 19/38/1
f 17/50/1 19/38/1 15/46/1
f 11/37/1 12/44/1 15/46/1
f 15/46/1 19/38/1 11/37/1
f 21/30/1 22/3/1 57/43/1
f 19/38/1 20/47/1 10/36/1
f 54/52/1 55/40/1 37/53/1
f 52/54/1 53/55/1 41/56/1
f 50/57/1 51/58/1 52/54/1
f 48/59/1 49/60/1 50/57/1
f 46/61/1 47/62/1 48/59/1
f 44/63/1 45/64/1 46/61/1
f 42/65/1 43/66/1 52/54/1
f 40/67/1 41/56/1 53/55/1
f 41/56/1 42/65/1 52/54/1
f 44/63/1 46/61/1 48/59/1
f 48/59/1 50/57/1 44/63/1
f 53/55/1 39/68/1 40/67/1
f 20/47/1 21/30/1 9/39/1
f 23/1/1 24/69/1 25/70/1
f 25/70/1 26/71/1 28/72/1
f 27/73/1 28/72/1 26/71/1
f 28/72/1 29/74/1 25/70/1
f 23/1/1 25/70/1 29/74/1
f 57/43/1 22/3/1 34/2/1
f 44/63/1 50/57/1 52/54/1
f 43/66/1 44/63/1 52/54/1
f 23/1/1 29/74/1 30/75/1
f 23/1/1 30/75/1 31/76/1
f 53/55/1 54/52/1 39/68/1
f 39/68/1 54/52/1 38/77/1
f 23/1/1 31/76/1 32/78/1
f 23/1/1 32/78/1 33/79/1
f 38/77/1 54/52/1 37/53/1
f 35/42/1 36/80/1 37/53/1
f 37/53/1 55/40/1 35/42/1
f 23/1/1 33/79/1 34/2/1
f 34/2/1 35/42/1 56/41/1
