# Blender v2.78 (sub 0) OBJ File: ''
# www.blender.org
v -2.000000 -2.000000 2.000000
v -2.000000 -2.000000 -2.000000
v 2.000000 -2.000000 -2.000000
v 1.999999 -2.000000 2.000001
v -2.000001 2.000000 1.999999
v -1.999999 2.000000 -2.000001
v 2.000001 2.000000 -1.999999
v 2.000000 2.000000 2.000000
# Texture coordinates
vt 0 1
vt 0 0
vt 1 0
vt 1 1
vn 0.0000 -1.0000 0.0000
vn 0.0000 1.0000 -0.0000
vn -1.0000 -0.0000 0.0000
vn 0.0000 -0.0000 -1.0000
vn 1.0000 -0.0000 0.0000
vn -0.0000 0.0000 1.0000

s off
f 2/4/1 4/3/1 1/2/1
f 8/4/2 6/2/2 5/1/2
f 5/4/3 2/3/3 1/2/3
f 6/4/4 3/2/4 2/1/4
f 3/4/5 8/3/5 4/2/5
f 1/4/6 8/2/6 5/1/6
f 2/4/1 3/3/1 4/2/1
f 8/4/2 7/2/2 6/1/2
f 5/4/3 6/3/3 2/2/3
f 6/4/4 7/2/4 3/1/4
f 3/4/5 7/3/5 8/2/5
f 1/4/6 4/2/6 8/1/6
